<?xml version="1.0" standalone="no"?>
<!DOCTYPE svg PUBLIC "-//W3C//DTD SVG 20010904//EN"
 "http://www.w3.org/TR/2001/REC-SVG-20010904/DTD/svg10.dtd">
<svg version="1.0" xmlns="http://www.w3.org/2000/svg"
 width="500.000000pt" height="500.000000pt" viewBox="0 0 500.000000 500.000000"
 preserveAspectRatio="xMidYMid meet">
<metadata>
Created by potrace 1.14, written by Peter Selinger 2001-2017
</metadata>
<g transform="translate(0.000000,500.000000) scale(0.100000,-0.100000)"
fill="#000000" stroke="none">
<path d="M2250 4485 c-288 -36 -586 -145 -830 -302 -234 -152 -444 -360 -593
-588 -334 -512 -417 -1144 -226 -1720 382 -1153 1695 -1705 2778 -1169 409
202 725 519 921 925 375 779 213 1696 -406 2301 -434 423 -1041 628 -1644 553z
m1056 -900 c-3 -16 -9 -195 -12 -397 l-7 -368 -33 0 c-32 0 -33 1 -44 58 -70
352 -199 546 -421 634 -78 31 -307 38 -359 11 -66 -34 -65 -26 -68 -562 l-3
-484 59 6 c124 13 221 70 306 180 51 65 101 165 111 220 7 35 9 37 45 37 l38
0 -1 -297 c-1 -164 2 -376 6 -470 l8 -173 -40 0 c-36 0 -41 3 -41 23 -1 79
-98 250 -179 315 -74 60 -193 101 -294 102 -17 0 -18 -24 -15 -492 3 -439 5
-496 20 -524 26 -48 53 -54 226 -54 140 0 163 3 212 23 158 65 292 214 371
412 31 79 89 290 89 326 0 15 7 19 38 19 l37 0 0 -292 c0 -161 4 -354 8 -428
l8 -135 -961 -1 -961 -1 3 31 c3 30 5 31 68 39 115 14 146 44 161 154 6 44 9
427 7 995 -3 900 -3 924 -23 963 -28 55 -72 82 -150 90 -65 7 -65 7 -65 39 l0
31 931 0 931 0 -6 -30z"/>
<path d="M1881 2980 c1 -25 3 -37 6 -27 3 12 15 17 39 17 36 0 42 -8 22 -28
-9 -9 -6 -12 17 -12 23 0 26 3 17 12 -22 22 -13 30 28 26 39 -3 40 -3 40 27
l0 30 -85 0 -85 0 1 -45z"/>
<path d="M2023 2924 l-22 -24 24 0 c20 0 25 5 25 25 0 29 1 29 -27 -1z"/>
<path d="M1880 2723 c0 -16 4 -23 8 -17 4 6 13 13 20 15 8 3 5 8 -8 17 -18 11
-20 10 -20 -15z"/>
<path d="M1935 2710 c3 -5 8 -10 11 -10 2 0 4 5 4 10 0 6 -5 10 -11 10 -5 0
-7 -4 -4 -10z"/>
<path d="M1989 2692 c12 -9 9 -12 -14 -18 -16 -4 -40 -13 -54 -20 -20 -10 -27
-11 -33 -1 -4 7 -8 -6 -8 -29 l0 -41 83 32 c80 32 106 57 70 68 -10 2 -27 8
-38 12 -15 5 -17 5 -6 -3z"/>
<path d="M2004 2415 c11 -8 23 -15 28 -15 4 0 8 -7 8 -15 0 -12 -15 -15 -74
-15 -50 0 -76 4 -79 13 -3 6 -5 -10 -5 -38 0 -27 2 -44 5 -37 6 15 153 17 153
2 0 -5 -12 -16 -27 -24 l-28 -15 33 -1 32 0 0 80 0 80 -32 0 c-31 -1 -32 -1
-14 -15z"/>
<path d="M1881 2075 l-1 -41 40 4 c42 4 53 -9 23 -28 -17 -11 -17 -11 0 -6 10
3 26 6 35 7 11 0 12 2 5 6 -25 10 -12 23 22 23 29 0 35 -4 35 -20 0 -12 -10
-24 -22 -30 -22 -8 -22 -9 5 -9 27 -1 27 -1 26 67 0 37 -3 61 -6 55 -3 -9 -29
-13 -78 -13 -49 0 -75 4 -78 13 -3 6 -6 -6 -6 -28z"/>
<path d="M1880 1997 c0 -24 4 -27 33 -27 29 1 30 2 12 12 -11 6 -26 18 -32 26
-11 14 -13 12 -13 -11z"/>
</g>
</svg>
